<svg viewBox="0 0 100 100" fill="none" xmlns="http://www.w3.org/2000/svg">
<rect width="100" height="100" rx="22" fill="white"/>
<defs><linearGradient id="g" x1="10" y1="20" x2="90" y2="85" gradientUnits="userSpaceOnUse">
<stop offset="0%" stop-color="#2E90FA"/><stop offset="55%" stop-color="#4E5FFF"/><stop offset="100%" stop-color="#8B3DFF"/>
</linearGradient></defs>
<g transform="translate(14,10) scale(0.72)">
<circle cx="22" cy="22" r="9" fill="#2E90FA"/>
<rect x="14" y="38" width="16" height="48" rx="8" fill="url(#g)"/>
<path d="M 84 32 Q 84 22 74 22 L 56 22 Q 42 22 42 36 Q 42 50 56 50 L 70 50 Q 84 50 84 65 Q 84 80 70 80 L 48 80"
 stroke="url(#g)" stroke-width="15" stroke-linecap="round" fill="none"/>
<line x1="36" y1="62" x2="62" y2="62" stroke="white" stroke-width="4" stroke-linecap="round"/>
<circle cx="36" cy="62" r="6" fill="white"/><circle cx="62" cy="62" r="6" fill="white"/>
<circle cx="36" cy="62" r="3.2" fill="#4E5FFF"/><circle cx="62" cy="62" r="3.2" fill="#7A45FF"/>
</g>
</svg>
